<svg width="46" height="46" viewBox="0 0 46 46" fill="none" xmlns="http://www.w3.org/2000/svg">
<g clip-path="url(#clip0)">
<path d="M19.0449 27.7836L29.2604 22.4777L19.0449 17.1392V27.7836Z" fill="white"/>
<path d="M23.1836 4.77152e-07C18.6759 -0.000921715 14.2692 1.33492 10.5207 3.83858C6.77228 6.34224 3.85047 9.90126 2.12482 14.0655C0.39917 18.2298 -0.0528174 22.8123 0.826021 27.2335C1.70486 31.6547 3.87505 35.7159 7.06213 38.9037C10.2492 42.0914 14.31 44.2624 18.731 45.1422C23.152 46.0219 27.7346 45.5709 31.8993 43.8461C36.0639 42.1213 39.6235 39.2002 42.1279 35.4523C44.6324 31.7043 45.9691 27.2979 45.9691 22.7902C45.9691 16.7467 43.5686 10.9506 39.2957 6.67675C35.0227 2.40289 29.2271 0.00123688 23.1836 4.77152e-07ZM38.7096 30.3947C38.5311 31.2195 38.1003 31.9683 37.4771 32.5372C36.8538 33.1061 36.069 33.467 35.2314 33.5699C31.2273 33.9497 27.2051 34.1053 23.1836 34.0361C19.1558 34.1059 15.1274 33.9503 11.1171 33.5699C10.2811 33.4686 9.49731 33.11 8.87416 32.5436C8.251 31.9773 7.81932 31.2312 7.63884 30.4087C7.07934 27.9702 7.07934 25.3126 7.07934 22.8042C7.07934 20.2958 7.07934 17.6335 7.64817 15.1997C7.82531 14.3754 8.25432 13.6266 8.87581 13.0569C9.49729 12.4872 10.2805 12.1248 11.1171 12.0199C15.1227 11.6402 19.1465 11.4845 23.1696 11.5536C27.1911 11.4846 31.2133 11.6403 35.2174 12.0199C36.0531 12.1218 36.8366 12.4807 37.4596 13.0469C38.0826 13.6132 38.5145 14.3589 38.6956 15.181C39.2551 17.6195 39.2505 20.2771 39.2505 22.7855C39.2505 25.294 39.2691 27.9749 38.7096 30.3947Z" fill="white"/>
</g>
<defs>
<clipPath id="clip0">
<rect width="45.5758" height="45.5758" fill="white" transform="translate(0.394531)"/>
</clipPath>
</defs>
</svg>
