<?xml version="1.0" encoding="utf-8"?>
<!-- Generator: Adobe Illustrator 21.1.0, SVG Export Plug-In . SVG Version: 6.00 Build 0)  -->
<svg version="1.1" id="Layer_1" xmlns="http://www.w3.org/2000/svg" xmlns:xlink="http://www.w3.org/1999/xlink" x="0px" y="0px"
	 viewBox="0 0 60 60" style="enable-background:new 0 0 60 60;" xml:space="preserve">
<style type="text/css">
	.st0{fill:#FFFFFF;}
</style>
<path class="st0" d="M30,0C13.4,0,0,13.4,0,30c0,16.6,13.4,30,30,30s30-13.4,30-30C60,13.4,46.6,0,30,0z M21.2,45.3h-6.8V24.8h6.8
	V45.3z M17.8,22.1L17.8,22.1c-2.3,0-3.8-1.6-3.8-3.5c0-2,1.5-3.5,3.8-3.5s3.8,1.5,3.8,3.5C21.6,20.5,20.2,22.1,17.8,22.1z
	 M45.7,45.3h-6.8V34.3c0-2.7-1-4.6-3.4-4.6c-1.9,0-3,1.3-3.5,2.5c-0.2,0.4-0.2,1-0.2,1.7v11.4H25c0,0,0.1-18.5,0-20.4h6.8v2.9
	c0.9-1.4,2.5-3.4,6.1-3.4c4.5,0,7.8,2.9,7.8,9.2L45.7,45.3z"/>
</svg>
