<?xml version="1.0" encoding="utf-8"?>
<!-- Generator: Adobe Illustrator 21.1.0, SVG Export Plug-In . SVG Version: 6.00 Build 0)  -->
<svg version="1.1" id="Layer_1" xmlns="http://www.w3.org/2000/svg" xmlns:xlink="http://www.w3.org/1999/xlink" x="0px" y="0px"
	 viewBox="0 0 530.5 131.6" style="enable-background:new 0 0 530.5 131.6;" xml:space="preserve">
<style type="text/css">
	.st0{fill:#FFFFFF;}
</style>
<title>logo</title>
<g id="Layer_2">
	<g id="Layer_1-2">
		<path class="st0" d="M100.3,53.9c12.8,0,20.9-7.2,21.7-19.9l-10.2-0.1c-0.6,7.1-4.1,11.8-11.4,11.8c-8.7,0-12-6.5-12-16.2V29
			c0-9.6,3.3-16.2,12-16.2c7.1,0,10.5,4.4,11.3,11.2H122c-1-12.3-9-19.3-21.6-19.3C86,4.7,78.1,14,78.1,29.1v0.4
			C78.1,44.5,86.1,53.9,100.3,53.9"/>
		<path class="st0" d="M101.1,72H80.7v47.7h10.2V102h10.2c11.6,0,19-3.8,19-15v-0.1C120.1,75.8,112.5,72,101.1,72 M109.7,87.1
			c0,5.7-3.5,7.1-9,7.1h-9.8V79.8h9.8c5.6,0,9,1.4,9,7.2L109.7,87.1z"/>
		<path class="st0" d="M292.1,53.9c12.8,0,20.9-7.2,21.7-19.9l-10.2-0.1c-0.6,7.1-4.1,11.8-11.4,11.8c-8.6,0-12-6.5-12-16.2V29
			c0-9.6,3.3-16.2,12-16.2c7.1,0,10.5,4.4,11.3,11.2h10.2c-1-12.3-9-19.3-21.6-19.3c-14.3,0-22.3,9.2-22.3,24.4v0.4
			C269.8,44.5,277.8,53.8,292.1,53.9"/>
		<path class="st0" d="M29.3,58.6c-5.3,0.1-10.5-1.2-15.1-3.7c-4.4-2.4-8-6-10.4-10.4C1.2,39.8-0.1,34.6,0,29.3
			C-0.1,24,1.2,18.8,3.7,14.2c2.4-4.4,6-8,10.4-10.4C18.8,1.2,24-0.1,29.3,0c5.3-0.1,10.5,1.2,15.1,3.7c4.4,2.4,8,6,10.4,10.4
			c2.5,4.6,3.8,9.8,3.7,15.1c0.1,5.3-1.2,10.5-3.7,15.1c-2.4,4.4-6,8-10.4,10.4C39.8,57.3,34.6,58.6,29.3,58.6 M29.3,56.4
			c4.9,0.1,9.7-1.1,14-3.4c4-2.2,7.3-5.6,9.5-9.6c2.3-4.3,3.5-9.1,3.4-14c0.1-4.9-1.1-9.7-3.4-14c-2.2-4-5.5-7.4-9.5-9.6
			c-4.3-2.3-9.1-3.5-14-3.4c-4.9-0.1-9.7,1.1-14,3.4c-4,2.2-7.3,5.6-9.5,9.6c-2.3,4.3-3.5,9.1-3.4,14c-0.1,4.9,1.1,9.7,3.4,14
			c2.2,4,5.5,7.4,9.5,9.6C19.6,55.3,24.4,56.5,29.3,56.4 M29.6,47.4c-3.1,0.1-6.2-0.7-8.9-2.3c-2.6-1.5-4.7-3.7-6.1-6.3
			c-1.5-2.9-2.3-6.1-2.2-9.3c-0.1-3.3,0.7-6.6,2.3-9.5c1.5-2.7,3.7-4.9,6.4-6.4c2.9-1.6,6.1-2.4,9.4-2.3c0.7,0,1.4,0,2.2,0.1
			l2.3,0.2c0.7,0,1.5,0.1,2.3,0.2c0.8,0.1,1.4,0.1,2,0.1h1.8l2.2,8.8h-0.7l-2-2.1c-1.1-1.2-2.4-2.3-3.7-3.4c-0.9-0.7-1.9-1.3-3-1.7
			c-1.1-0.4-2.3-0.6-3.5-0.6c-1.9-0.1-3.9,0.5-5.5,1.6c-1.5,1.1-2.7,2.7-3.2,4.5c-0.8,2.4-1.1,4.9-1.1,7.4c-0.1,3,0.4,6.1,1.5,8.9
			c0.8,2.3,2.3,4.3,4.3,5.8c2,1.4,4.5,2.1,6.9,2c2.4,0.1,4.7-0.6,6.6-1.9c1.8-1.4,3.3-3.2,4.2-5.3l1.5,0.6c-1.3,3.2-3.4,5.9-6.1,8
			C36.7,46.5,33.2,47.5,29.6,47.4"/>
		<rect x="127.4" y="5.5" class="st0" width="9.4" height="47.7"/>
		<path class="st0" d="M174.3,19.9v33.3h-9.1v-5.3c-1.8,3.6-5.3,6-10.5,6c-7.5,0-11.5-4.8-11.5-11.9V19.9h9.4v20.9
			c0,3.3,1.4,5.7,5.4,5.7c4.7,0,6.8-3.3,6.8-7.2V19.9H174.3z"/>
		<path class="st0" d="M214.1,36.1v0.4c0,10.5-5.3,17.4-13.9,17.4c-4.4,0.1-8.4-2.2-10.5-6v5.2h-8.9V5.5h9.4v19
			c2.1-3.5,6-5.6,10.1-5.4C208.9,19.1,214.1,25.8,214.1,36.1 M204.5,36.3c0-6.2-2.1-10.1-7-10.1s-7.4,3.9-7.4,10v0.4
			c0,6.2,2.5,10.1,7.4,10.1s7-3.9,7-10.2V36.3z"/>
		<path class="st0" d="M250.2,38.2h-23.4c0,5.4,1.9,9,7.4,9c4.5,0,6.4-2.5,6.8-5.8h9c-0.5,7.6-6.3,12.4-16,12.4
			c-10.8,0-16.7-6.3-16.7-17.2v-0.3c0-11,6.1-17.2,16.6-17.2c9.9,0,16.2,5.9,16.2,16.7L250.2,38.2z M226.9,32.6h13.9
			c-0.4-4.5-2.4-7.1-6.9-7.1S227.4,28.1,226.9,32.6"/>
		<path class="st0" d="M339.6,19.9v8h-3.9c-5.2,0-7.2,3.5-7.2,8v17.2h-9.5V19.9h9.1v6.3c1.4-4.1,4.3-6.3,8.6-6.3H339.6z"/>
		<path class="st0" d="M343,5.5h9.5V14H343V5.5z M343,19.9h9.5v33.3H343V19.9z"/>
		<path class="st0" d="M388.1,30.8v22.3h-9v-5.2c-1.7,3.3-5.4,5.9-10.9,5.9c-6.4,0-10.8-3.9-10.8-10.2c0-5.5,2.9-8.2,7.1-10
			c4-1.7,8.7-2.4,14.3-2.7v-0.4c0-3.1-1.3-5.2-5.7-5.2c-3.9,0-5.7,1.7-5.9,5.2h-8.9c0.4-8,5.8-11.6,15.1-11.6
			C382.8,19.1,388.1,23.1,388.1,30.8 M378.8,40.8v-4.3c-2.9,0.1-5.7,0.6-8.5,1.7c-2.2,1-3.4,2.5-3.4,4.8c0,2.7,1.9,4.1,4.8,4.1
			C375.8,47.1,378.8,44.3,378.8,40.8"/>
		<path class="st0" d="M405.2,53.1c-5.8,0-9-2.3-9-8V27.1h-4.9v-7.2h4.9v-8.2l9.4-5.9v14.1h5.4v7.2h-5.5v16.3c0,1.7,0.5,2.5,2.7,2.5
			h2.8v7.2L405.2,53.1z"/>
		<path class="st0" d="M415.8,5.5h9.5V14h-9.5V5.5z M415.8,19.9h9.5v33.3h-9.5V19.9z"/>
		<polygon class="st0" points="462.1,19.9 450.8,53.1 439.7,53.1 428.4,19.9 438.2,19.9 445.4,44.8 452.6,19.9 		"/>
		<path class="st0" d="M462.5,36.7v-0.5c0-10.7,6.6-17.1,16.9-17.1s16.9,6.5,16.9,17.1v0.5c0,10.7-6.5,17.1-16.9,17.1
			S462.5,47.4,462.5,36.7 M486.7,36.6v-0.1c0-6.1-2.1-10.1-7.2-10.1s-7.3,4-7.3,10.1v0.1c0,6.1,2.1,10.1,7.3,10.1
			S486.7,42.7,486.7,36.6"/>
		<path class="st0" d="M499.1,41.5h8.4c0.3,4.7,3.2,6,7.7,6c4.1,0,6.2-1.2,6.2-3.7c0-1.8-1.1-2.6-3.8-3.3c-2.9-0.7-7.5-1.1-11.3-2.2
			c-3.9-1.2-6.3-3.8-6.3-8.5l0,0c0-6.8,5.6-10.6,14.1-10.6c9.5,0,15,3.4,15.5,11.6h-8.4c-0.3-3.9-2.7-5.2-6.7-5.2
			c-3.5,0-5.4,1-5.4,3.3c0,1.7,1.1,2.5,3.7,3.1c3,0.7,7.8,1.3,11.3,2.3c3.9,1.1,6.3,3.7,6.3,8.5c0,7.3-6,11.1-15.3,11.1
			C505.5,54,499.6,50.7,499.1,41.5"/>
		<path class="st0" d="M120.4,103.3v-0.5c0-10.7,6.6-17.1,16.9-17.1s16.9,6.5,16.9,17.1v0.5c0,10.7-6.6,17.1-16.9,17.1
			S120.4,113.9,120.4,103.3 M144.6,103.1L144.6,103.1c0-6.2-2.1-10.2-7.2-10.2s-7.3,4-7.3,10.1v0.1c0,6.1,2.1,10.1,7.3,10.1
			S144.5,109.2,144.6,103.1"/>
		<path class="st0" d="M179.5,86.4v8.1h-3.9c-5.2,0-7.2,3.5-7.2,8v17.2H159V86.4h9.1v6.3c1.4-4.1,4.3-6.3,8.6-6.3H179.5z"/>
		<path class="st0" d="M196.7,119.7c-5.8,0-9-2.3-9-8V93.6h-4.9v-7.2h4.9v-8.2l9.4-5.9v14.1h5.5v7.2h-5.5v16.3
			c0,1.7,0.5,2.5,2.7,2.5h2.8v7.2H196.7z"/>
		<path class="st0" d="M238.6,86.4v33.3h-9.1v-5.3c-1.8,3.6-5.3,6.1-10.5,6.1c-7.5,0-11.5-4.8-11.5-11.9V86.4h9.4v20.9
			c0,3.3,1.4,5.7,5.4,5.7c4.7,0,6.8-3.3,6.8-7.2V86.4H238.6z"/>
		<path class="st0" d="M276.7,86.4v31.4c0,8.8-6.6,13.7-16.9,13.7c-9.3,0-15.4-3.9-15.9-11.3h9.1c0.3,2.8,2.4,4.9,6.8,4.9
			c5.5,0,7.4-3,7.4-7.5v-4.5c-1.9,3.3-5.3,5.5-10.1,5.5c-8.4,0-13.6-6.3-13.6-16.1v-0.5c0-10,5.2-16.5,13.8-16.5
			c4.3-0.2,8.3,2,10.4,5.8v-5.1L276.7,86.4z M267.4,102.6v-0.4c0-5.9-2.4-9.4-7.3-9.4s-7,3.6-7,9.6v0.3c0,5.8,2.1,9.5,7,9.5
			S267.4,108.4,267.4,102.6"/>
		<path class="st0" d="M312.5,97.4v22.3h-9v-5.2c-1.7,3.3-5.4,5.9-10.9,5.9c-6.4,0-10.8-3.9-10.8-10.2c0-5.5,2.9-8.2,7.1-10
			c4-1.7,8.7-2.4,14.3-2.7v-0.4c0-3.1-1.3-5.2-5.7-5.2c-3.9,0-5.7,1.7-5.9,5.2h-8.9c0.4-8,5.8-11.6,15.1-11.6
			C307.2,85.6,312.5,89.6,312.5,97.4 M303.1,107.3V103c-2.9,0.1-5.7,0.6-8.5,1.7c-2.2,1-3.4,2.5-3.4,4.8c0,2.7,1.9,4.1,4.8,4.1
			C300.1,113.6,303.1,110.9,303.1,107.3"/>
		<rect x="318.8" y="72" class="st0" width="9.5" height="47.7"/>
	</g>
</g>
</svg>
