<svg xmlns="http://www.w3.org/2000/svg" viewBox="0 0 49.65 49.65"><defs><style>.cls-1{fill:#fff;}</style></defs><title>twitter</title><g id="Layer_2" data-name="Layer 2"><g id="Capa_1" data-name="Capa 1"><path class="cls-1" d="M24.83,0A24.83,24.83,0,1,0,49.65,24.83,24.85,24.85,0,0,0,24.83,0ZM35.9,19.14c0,.25,0,.49,0,.74,0,7.55-5.75,16.25-16.26,16.25a16.16,16.16,0,0,1-8.76-2.56,11.54,11.54,0,0,0,8.46-2.37,5.72,5.72,0,0,1-5.34-4,5.74,5.74,0,0,0,2.58-.1A5.72,5.72,0,0,1,12,21.54s0,0,0-.07a5.69,5.69,0,0,0,2.59.71,5.72,5.72,0,0,1-1.77-7.63,16.22,16.22,0,0,0,11.78,6,5.72,5.72,0,0,1,9.74-5.21A11.41,11.41,0,0,0,38,13.93a5.74,5.74,0,0,1-2.52,3.16,11.36,11.36,0,0,0,3.28-.9A11.49,11.49,0,0,1,35.9,19.14Z"/></g></g></svg>