<svg xmlns="http://www.w3.org/2000/svg" viewBox="0 0 626 626"><defs><style>.cls-1{fill:#fff;}</style></defs><title>FLIKER</title><g id="Layer_2" data-name="Layer 2"><g id="Layer_1-2" data-name="Layer 1"><path class="cls-1" d="M294,0h38c1.44.32,2.87.72,4.32.94,15.62,2.4,31.38,4.06,46.83,7.28,33.05,6.89,63.84,19.86,92.6,37.45a311.09,311.09,0,0,1,92.12,85.86A307.44,307.44,0,0,1,623,270.79c1,7.73,2,15.47,3,23.21v38c-.32,1.45-.72,2.88-.94,4.35-2.4,15.62-4.08,31.38-7.29,46.83-6.87,33.06-19.86,63.86-37.45,92.61a310.66,310.66,0,0,1-85.47,91.81c-42.16,30-88.81,48.67-140.17,55.41L332,626H294c-7.56-1-15.12-2-22.69-3a298.38,298.38,0,0,1-100.6-31.25c-51.1-26.37-92.18-63.85-122.83-112.66A305.68,305.68,0,0,1,3,354.71Q1.51,343.35,0,332q0-19,0-38c.32-1.45.72-2.89.94-4.35,2.37-15.45,3.88-31.09,7.2-46.34,11.35-52.19,35.52-98,70.76-138A312.64,312.64,0,0,1,271.31,3Zm-4.3,313.19c.34-50.17-41-91.79-91.63-92.31-50.44-.52-92.19,40.74-92.77,91.68-.57,50,40.93,92,91.38,92.57C247.38,405.67,289.36,364.18,289.7,313.19Zm231-.39c-.22-50.75-41.88-92.16-92.49-91.93s-91.8,41.63-91.87,92.07,41.88,92.38,92.26,92.19C479.34,404.93,520.89,363.28,520.67,312.8Z"/></g></g></svg>