<svg xmlns="http://www.w3.org/2000/svg" viewBox="0 0 530.48 131.57"><title>logo</title><g id="Layer_2" data-name="Layer 2"><g id="Layer_1-2" data-name="Layer 1"><path d="M100.31,53.87c12.81,0,20.9-7.22,21.73-19.9l-10.25-.07c-.63,7.09-4.09,11.81-11.41,11.81-8.65,0-12-6.55-12-16.24V29c0-9.65,3.29-16.17,12-16.17,7.09,0,10.51,4.42,11.28,11.21H122c-1-12.28-9-19.33-21.6-19.33C86,4.75,78.05,14,78.05,29.11v.4c0,15,8,24.36,22.26,24.36"/><path d="M101.14,72H80.67v47.65H90.89V102h10.18c11.55,0,19-3.83,19-15v-.13c0-11.11-7.55-14.84-18.93-14.84m8.59,15.07c0,5.72-3.46,7.12-9,7.12H90.89V79.8h9.82c5.56,0,9,1.36,9,7.15Z"/><path d="M292.07,53.87c12.81,0,20.9-7.22,21.73-19.9l-10.25-.07c-.63,7.09-4.09,11.81-11.41,11.81-8.65,0-12-6.55-12-16.24V29c0-9.65,3.29-16.17,12-16.17,7.09,0,10.51,4.42,11.28,11.21h10.25c-1-12.28-9-19.33-21.59-19.33-14.34,0-22.33,9.25-22.33,24.36v.4c0,15,8,24.36,22.26,24.36"/><path d="M29.28,58.56a30.37,30.37,0,0,1-15.12-3.74A26.71,26.71,0,0,1,3.74,44.4,30.37,30.37,0,0,1,0,29.28,30.37,30.37,0,0,1,3.74,14.16,26.7,26.7,0,0,1,14.16,3.74,30.36,30.36,0,0,1,29.28,0,30.36,30.36,0,0,1,44.4,3.74,26.71,26.71,0,0,1,54.81,14.16a30.37,30.37,0,0,1,3.74,15.12A30.37,30.37,0,0,1,54.81,44.4,26.73,26.73,0,0,1,44.4,54.81a30.37,30.37,0,0,1-15.12,3.74m0-2.19a28.11,28.11,0,0,0,14-3.43,24.16,24.16,0,0,0,9.53-9.61,28.61,28.61,0,0,0,3.41-14,28.52,28.52,0,0,0-3.41-14,24.33,24.33,0,0,0-9.53-9.62,28,28,0,0,0-14-3.44,28.11,28.11,0,0,0-14,3.44,24.18,24.18,0,0,0-9.53,9.62,28.64,28.64,0,0,0-3.39,14,28.63,28.63,0,0,0,3.39,14,24.17,24.17,0,0,0,9.53,9.62,28.09,28.09,0,0,0,14,3.45m.27-9a17.41,17.41,0,0,1-8.92-2.26,15.86,15.86,0,0,1-6.09-6.34,19.36,19.36,0,0,1-2.2-9.33,19.05,19.05,0,0,1,2.33-9.5,16.45,16.45,0,0,1,6.45-6.44,18.9,18.9,0,0,1,9.35-2.3c.69,0,1.43,0,2.24.08l2.35.18q1.1.06,2.26.17t2,.1h1.83l2.2,8.78h-.7l-2-2.13A41.89,41.89,0,0,0,37,15a11.38,11.38,0,0,0-3-1.73,9.76,9.76,0,0,0-3.46-.56,9.14,9.14,0,0,0-5.46,1.55,9.14,9.14,0,0,0-3.23,4.54,22.36,22.36,0,0,0-1.07,7.42,24.52,24.52,0,0,0,1.46,8.92,12.32,12.32,0,0,0,4.31,5.77,11.71,11.71,0,0,0,6.94,2A10.81,10.81,0,0,0,40.11,41a13.47,13.47,0,0,0,4.17-5.29l1.46.63a18.81,18.81,0,0,1-6.1,8,16.27,16.27,0,0,1-10.1,3.08"/><rect x="127.44" y="5.48" width="9.45" height="47.65"/><path d="M174.29,19.86V53.13h-9.08V47.81c-1.83,3.59-5.29,6.05-10.52,6.05-7.52,0-11.48-4.76-11.48-11.91V19.86h9.45v20.9c0,3.33,1.36,5.69,5.42,5.69,4.66,0,6.75-3.26,6.75-7.19V19.86Z"/><path d="M214.08,36.07v.43c0,10.51-5.29,17.37-13.91,17.37a11.68,11.68,0,0,1-10.52-6v5.22h-8.88V5.48h9.45v19a11.28,11.28,0,0,1,10.12-5.39c8.55,0,13.74,6.69,13.74,16.94m-9.62.3c0-6.22-2.1-10.11-7-10.11s-7.35,3.86-7.35,10v.43c0,6.25,2.5,10.11,7.35,10.11s7-3.93,7-10.18Z"/><path d="M250.21,38.19H226.86c0,5.39,1.93,9,7.42,9,4.49,0,6.42-2.53,6.79-5.76h9c-.53,7.62-6.26,12.38-16,12.38-10.81,0-16.7-6.29-16.7-17.2v-.3c0-11,6.09-17.24,16.64-17.24,9.95,0,16.17,5.89,16.17,16.67Zm-23.29-5.62h13.91c-.36-4.49-2.36-7.09-6.85-7.09s-6.62,2.66-7.05,7.09"/><path d="M339.63,19.86v8.05h-3.86c-5.16,0-7.19,3.46-7.19,8V53.13h-9.45V19.86h9.08l0,6.29c1.4-4.09,4.33-6.29,8.62-6.29Z"/><path d="M343,5.48h9.45V14H343Zm0,14.38h9.45V53.13H343Z"/><path d="M388.15,30.84V53.13H379.1l0-5.19c-1.73,3.33-5.42,5.92-10.85,5.92-6.39,0-10.78-3.93-10.78-10.15,0-5.49,2.9-8.25,7.09-10,4-1.67,8.72-2.36,14.27-2.66v-.37c0-3.13-1.33-5.19-5.66-5.19-3.86,0-5.69,1.7-5.92,5.19H358.3c.37-8,5.82-11.58,15.07-11.58,9.45,0,14.78,4,14.78,11.71m-9.35,9.95V36.46a26,26,0,0,0-8.45,1.66c-2.23,1-3.39,2.46-3.39,4.83,0,2.73,1.9,4.13,4.76,4.13,4.06,0,7.09-2.76,7.09-6.29"/><path d="M405.19,53.13c-5.82,0-9-2.33-9-8V27.08h-4.89V19.86h4.89V11.64l9.38-5.92V19.86H411v7.22h-5.46v16.3c0,1.73.53,2.53,2.7,2.53H411v7.22Z"/><path d="M415.75,5.48h9.45V14h-9.45Zm0,14.38h9.45V53.13h-9.45Z"/><polygon points="462.12 19.86 450.77 53.13 439.69 53.13 428.42 19.86 438.23 19.86 445.42 44.82 452.61 19.86 462.12 19.86"/><path d="M462.54,36.73v-.47c0-10.68,6.59-17.14,16.9-17.14s16.87,6.46,16.87,17.14v.47c0,10.68-6.55,17.13-16.87,17.13s-16.9-6.45-16.9-17.13m24.16-.17v-.13c0-6.09-2.06-10.11-7.25-10.11s-7.29,4-7.29,10.11v.13c0,6.09,2.1,10.12,7.29,10.12s7.25-4,7.25-10.12"/><path d="M499.13,41.49h8.38c.3,4.73,3.16,6,7.72,6,4.09,0,6.19-1.23,6.19-3.73,0-1.83-1.1-2.6-3.79-3.26-2.9-.7-7.55-1.1-11.28-2.2-3.93-1.2-6.32-3.76-6.32-8.48v0c0-6.82,5.56-10.61,14.14-10.61,9.48,0,15,3.39,15.47,11.58h-8.42c-.33-3.86-2.66-5.19-6.69-5.19-3.49,0-5.42,1-5.42,3.3,0,1.66,1.07,2.49,3.73,3.1,3,.7,7.82,1.26,11.35,2.3,3.89,1.13,6.29,3.66,6.29,8.52,0,7.32-6,11.14-15.27,11.14-9.68,0-15.61-3.26-16.07-12.38"/><path d="M120.4,103.26v-.47c0-10.68,6.59-17.14,16.9-17.14s16.87,6.46,16.87,17.14v.47c0,10.68-6.56,17.13-16.87,17.13s-16.9-6.45-16.9-17.13m24.16-.17V103c0-6.09-2.06-10.11-7.25-10.11S130,96.87,130,103v.13c0,6.09,2.1,10.12,7.29,10.12s7.25-4,7.25-10.12"/><path d="M179.51,86.39v8.05h-3.86c-5.16,0-7.19,3.46-7.19,8v17.23H159V86.39h9.08l0,6.29c1.4-4.09,4.33-6.29,8.62-6.29Z"/><path d="M196.73,119.66c-5.82,0-9-2.33-9-8V93.61h-4.89V86.39h4.89V78.17l9.38-5.92V86.39h5.46v7.22h-5.46v16.3c0,1.73.53,2.53,2.7,2.53h2.76v7.22Z"/><path d="M238.55,86.39v33.27h-9.08v-5.32c-1.83,3.59-5.29,6.06-10.52,6.06-7.52,0-11.48-4.76-11.48-11.91V86.39h9.45v20.9c0,3.33,1.36,5.69,5.42,5.69,4.66,0,6.75-3.26,6.75-7.19V86.39Z"/><path d="M276.7,86.39v31.44c0,8.85-6.59,13.74-16.87,13.74-9.32,0-15.44-3.86-15.87-11.31h9.15c.33,2.83,2.36,4.89,6.79,4.89,5.49,0,7.39-3,7.39-7.46v-4.46c-1.86,3.33-5.26,5.52-10.12,5.52-8.39,0-13.61-6.32-13.61-16.11v-.46c0-10,5.22-16.54,13.84-16.54a11.38,11.38,0,0,1,10.42,5.79l0-5.06Zm-9.28,16.2v-.43c0-5.86-2.43-9.42-7.29-9.42s-7,3.56-7,9.55v.27c0,5.82,2.1,9.52,7,9.52s7.29-3.69,7.29-9.48"/><path d="M312.46,97.37v22.29h-9.05l0-5.19c-1.73,3.33-5.42,5.92-10.85,5.92-6.39,0-10.78-3.93-10.78-10.15,0-5.49,2.9-8.25,7.09-10,4-1.67,8.72-2.36,14.27-2.66v-.37c0-3.13-1.33-5.19-5.66-5.19-3.86,0-5.69,1.7-5.92,5.19h-8.92c.37-8,5.82-11.58,15.07-11.58,9.45,0,14.77,4,14.77,11.71m-9.35,9.95V103a26,26,0,0,0-8.45,1.66c-2.23,1-3.39,2.46-3.39,4.83,0,2.73,1.9,4.13,4.76,4.13,4.06,0,7.09-2.76,7.09-6.29"/><rect x="318.81" y="72.01" width="9.45" height="47.65"/></g></g></svg>